<svg id="colour" xmlns="http://www.w3.org/2000/svg" xmlns:xlink="http://www.w3.org/1999/xlink" viewBox="0 0 166.41 36"><defs><style>.cls-1{fill:#35404f;}.cls-2{fill:url(#linear-gradient);}.cls-3{fill:#f16522;}.cls-4{fill:url(#linear-gradient-2);}.cls-5{fill:#86269b;}</style><linearGradient id="linear-gradient" x1="75.6" y1="46.73" x2="61.52" y2="54.71" gradientTransform="translate(83.23 72) rotate(180)" gradientUnits="userSpaceOnUse"><stop offset="0" stop-color="#ffa001"/><stop offset="1" stop-color="#f16522"/></linearGradient><linearGradient id="linear-gradient-2" x1="56.9" y1="60.29" x2="71.2" y2="52.87" gradientTransform="translate(83.23 72) rotate(180)" gradientUnits="userSpaceOnUse"><stop offset="0" stop-color="#cc0063"/><stop offset="1" stop-color="#86269b"/></linearGradient></defs><title>logo-new</title><path class="cls-1" d="M47.47,8.91a2.46,2.46,0,1,1,2.44-2.45A2.44,2.44,0,0,1,47.47,8.91ZM45.08,27.29V10.2h4.75V27.29Z" transform="translate(0 0)"/><path class="cls-1" d="M60.22,27.65a5.76,5.76,0,0,1-3.86-1.51V32H51.62V17.7c0-5.21,4.1-7.86,8.61-7.86S68,13.71,68,18.75,64.61,27.65,60.22,27.65Zm-.56-14.08c-2.06,0-3.54,2.23-3.54,5.17s1.47,5.17,3.54,5.17,3.54-2.23,3.54-5.17S61.73,13.57,59.67,13.57Z" transform="translate(0 0)"/><path class="cls-1" d="M127.09,27.65a5.76,5.76,0,0,1-3.86-1.51V32h-4.75V17.7c0-5.21,4.1-7.86,8.61-7.86s7.82,3.86,7.82,8.9S131.48,27.65,127.09,27.65Zm-.56-14.08c-2.06,0-3.54,2.23-3.54,5.17s1.47,5.17,3.54,5.17,3.54-2.23,3.54-5.17S128.6,13.57,126.53,13.57Z" transform="translate(0 0)"/><path class="cls-1" d="M93,27.65a12.29,12.29,0,0,1-7.28-2.51l1.65-2.7a12.23,12.23,0,0,0,5.53,1.74c1.57,0,2.29-.56,2.29-1.6S93.86,21,91.6,20.29c-2.59-.88-5-2.23-5-5.34s2.82-5.2,6.51-5.2a10.77,10.77,0,0,1,6,1.9l-.85,3.08a10.78,10.78,0,0,0-5-1.54c-1.47,0-2.06.65-2.06,1.51s1.18,1.47,2.78,2c2.68.88,5.79,2,5.79,5.53S96.8,27.65,93,27.65Z" transform="translate(0 0)"/><path class="cls-1" d="M111.92,27.29V17.14c0-2.29-1-3.31-2.88-3.31a3.53,3.53,0,0,0-3.31,2.45v11H101V4.38h4.75v7.1a6.8,6.8,0,0,1,4.39-1.64c4.26,0,6.55,2.85,6.55,6.78V27.29Z" transform="translate(0 0)"/><path class="cls-1" d="M141.21,10.2V20.35c0,2.29,1,3.31,2.88,3.31a3.57,3.57,0,0,0,3.31-2.45v-11h4.75v9.63c0,6.59-6.51,7.82-9.13,7.82-4.26,0-6.55-2.85-6.55-6.78V10.2Z" transform="translate(0 0)"/><path class="cls-1" d="M74.38,10.2V20.35c0,2.29,1,3.31,2.88,3.31a3.57,3.57,0,0,0,3.31-2.45v-11h4.75v9.63c0,6.59-6.51,7.82-9.13,7.82-4.26,0-6.55-2.85-6.55-6.78V10.2Z" transform="translate(0 0)"/><path class="cls-1" d="M154.35,27.29V4.38h4.75V27.29Z" transform="translate(0 0)"/><path class="cls-1" d="M161.67,27.29V4.38h4.75V27.29Z" transform="translate(0 0)"/><polygon class="cls-2" points="0 27.99 12 36 24 27.99 24 16.4 12 24.41 0 16.4 0 27.99"/><polygon class="cls-3" points="0 27.99 3.31 30.2 12 24.41 0 16.4 0 27.99"/><polygon class="cls-4" points="24 11.59 36 19.6 36 8.01 24 0 12 8.01 12 19.6 24 11.59"/><polygon class="cls-5" points="36 19.6 36 8.01 32.69 5.8 24 11.59 36 19.6"/></svg>