 <svg
            class="h-16 w-24"
            viewBox="0 0 64 64"
            xmlns="http://www.w3.org/2000/svg"
          >
            <rect fill="#aae1f9" height="42" rx="2" width="58" x="3" y="7" />
            <path
              d="m13 23v-16h-8a2 2 0 0 0 -2 2v38a2 2 0 0 0 2 2h54a2 2 0 0 0 2-2v-6h-30a18 18 0 0 1 -18-18z"
              fill="#57b7eb"
            />
            <path d="m39 49h-14l-4 8h22z" fill="#fcbc04" />
            <path
              d="m14 57h36a2 2 0 0 1 2 2v2a0 0 0 0 1 0 0h-40a0 0 0 0 1 0 0v-2a2 2 0 0 1 2-2z"
              fill="#fcbc04"
            />
            <path
              d="m18 57h32a2 2 0 0 1 2 2 0 0 0 0 1 0 0h-32a2 2 0 0 1 -2-2 0 0 0 0 1 0 0z"
              fill="#f9e109"
            />
            <path d="m39 49h-14l-4 8z" fill="#e59730" />
            <circle cx="14" cy="17" fill="#c4f236" r="6" />
            <path d="m13 22.91v-11.82a6 6 0 0 0 0 11.82z" fill="#a1d51c" />
            <path d="m14 11v6h6a6 6 0 0 0 -6-6z" fill="#f89c8d" />
            <path d="m44 11h4v4h-4z" fill="#c4f236" />
            <path d="m48 11h4v4h-4z" fill="#a1d51c" />
            <path d="m52 11h4v4h-4z" fill="#7ab92d" />
            <path
              d="m13.33 42.52a1 1 0 0 1 -.67-.26 1 1 0 0 1 -.07-1.41l6.33-7a1 1 0 0 1 1.42-.07 1 1 0 0 1 .07 1.41l-6.33 7a1 1 0 0 1 -.75.33z"
              fill="#f8664f"
            />
            <path
              d="m13.33 42.52a1 1 0 0 0 .75-.33l5.08-5.65a18.89 18.89 0 0 1 -1.43-1.4l-5.14 5.71a1 1 0 0 0 .07 1.41 1 1 0 0 0 .67.26z"
              fill="#cc5144"
            />
            <path
              d="m28.51 40.68a1 1 0 0 1 -.66-.26l-6-5.35a1 1 0 0 1 1.33-1.49l6 5.35a1 1 0 0 1 .08 1.41 1 1 0 0 1 -.75.34z"
              fill="#f8664f"
            />
            <path
              d="m31.14 40.36a1 1 0 0 1 -.57-.18 1 1 0 0 1 -.26-1.39l6.69-9.72a1 1 0 1 1 1.64 1.14l-6.64 9.72a1 1 0 0 1 -.86.43z"
              fill="#f8664f"
            />
            <path
              d="m44.59 34.59a1 1 0 0 1 -.71-.3l-4.17-4.17a1 1 0 1 1 1.41-1.41l4.17 4.17a1 1 0 0 1 0 1.41 1 1 0 0 1 -.7.3z"
              fill="#f8664f"
            />
            <path
              d="m47.24 34.45a1 1 0 0 1 -.78-1.63l5.54-6.89a1 1 0 1 1 1.57 1.25l-5.57 6.89a1 1 0 0 1 -.76.38z"
              fill="#f8664f"
            />
            <circle cx="12" cy="43" fill="#fcbc04" r="3" />
            <circle cx="39" cy="28" fill="#f9e109" r="3" />
            <circle cx="21" cy="33" fill="#f9e109" r="3" />
            <circle cx="30" cy="41" fill="#f9e109" r="3" />
            <circle cx="46" cy="35" fill="#f9e109" r="3" />
            <circle cx="54" cy="25" fill="#f9e109" r="3" />
            <path
              d="m27.05 40.55a2.3 2.3 0 0 0 -.05.45 3 3 0 0 0 6 0h-2a17.71 17.71 0 0 1 -3.95-.45z"
              fill="#fcbc04"
            />
            <circle cx="25" cy="16" fill="#f9e109" r="1" />
            <circle cx="29" cy="16" fill="#f9e109" r="1" />
            <circle cx="33" cy="16" fill="#f9e109" r="1" />
            <circle cx="37" cy="16" fill="#f9e109" r="1" />
            <g fill="#c4f236">
              <circle cx="25" cy="20" r="1" />
              <circle cx="29" cy="20" r="1" />
              <circle cx="33" cy="20" r="1" />
              <circle cx="37" cy="20" r="1" />
              <circle cx="41" cy="20" r="1" />
              <circle cx="45" cy="20" r="1" />
            </g>
            <circle cx="25" cy="12" fill="#f8664f" r="1" />
            <circle cx="29" cy="12" fill="#f8664f" r="1" />
            <path d="m57 42h-5a1 1 0 0 1 0-2h5a1 1 0 0 1 0 2z" fill="#fcbc04" />
            <path d="m56 46h-9a1 1 0 0 1 0-2h9a1 1 0 0 1 0 2z" fill="#cc5144" />
            <path
              d="m51 41h7a0 0 0 0 1 0 0 1 1 0 0 1 -1 1h-5a1 1 0 0 1 -1-1 0 0 0 0 1 0 0z"
              fill="#e59730"
            />
          </svg>