 <svg
          class="h-16 w-24"
          viewBox="0 0 60 60"
          xmlns="http://www.w3.org/2000/svg"
        >
          <g id="Page-1" fill="none" fill-rule="evenodd">
            <g
              id="057---Design-Ad-Website"
              fill-rule="nonzero"
              transform="translate(-1)"
            >
              <path
                id="Shape"
                d="m56 43v3.82c.0452102 1.152631-.8477494 2.1259569-2 2.18h-50c-1.15225064-.0540431-2.04521019-1.027369-2-2.18v-3.82z"
                fill="#02a9f4"
              />
              <path
                id="Shape"
                d="m53 43v3.82c.0452102 1.152631-.8477494 2.1259569-2 2.18h3c1.1522506-.0540431 2.0452102-1.027369 2-2.18v-3.82z"
                fill="#0377bc"
              />
              <path
                id="Shape"
                d="m56 10.75v32.25h-54v-35.82c-.04521019-1.152631.84774936-2.12595691 2-2.18h46.25l-8.8 8.8 5.75 5.75z"
                fill="#f5f5f5"
              />
              <path id="Shape" d="m53 13.75v29.25h3v-32.25z" fill="#cfd8dc" />
              <path id="Shape" d="m36 49 3 6h-10-10l3-6z" fill="#3f51b5" />
              <path id="Shape" d="m36 49h-3l3 6h3z" fill="#283593" />
              <rect
                id="Rectangle-path"
                fill="#02a9f4"
                height="4"
                rx="2"
                width="32"
                x="13"
                y="55"
              />
              <path
                id="Shape"
                d="m43 55h-3c1.1045695 0 2 .8954305 2 2s-.8954305 2-2 2h3c1.1045695 0 2-.8954305 2-2s-.8954305-2-2-2z"
                fill="#0377bc"
              />
              <path
                id="Rectangle-path"
                d="m43.684 11.061h14.213v4.059h-14.213z"
                fill="#3f51b5"
                transform="matrix(.707 -.707 .707 .707 5.62 39.748)"
              />
              <path
                id="Shape"
                d="m54.38 6.63-10.05 10.05h-.01l-2.87-2.88 10.05-10.05z"
                fill="#02a9f4"
              />
              <path
                id="Shape"
                d="m51.5 3.75 2.158-2.15c.7938103-.79320538 2.0801897-.79320538 2.874 0l2.873 2.873c.7932054.79381034.7932054 2.08018966 0 2.874l-2.155 2.153z"
                fill="#e91e63"
              />
              <path
                id="Shape"
                d="m59.405 4.468-2.873-2.868c-.7938103-.79320538-2.0801897-.79320538-2.874 0l-.063.063 2.81 2.81c.7932054.79381034.7932054 2.08018966 0 2.874l-.655.653 1.5 1.5 2.155-2.154c.3821504-.38137889.5969053-.89910296.5969053-1.439s-.2147549-1.05762111-.5969053-1.439z"
                fill="#ad1457"
              />
              <path
                id="Shape"
                d="m41.447 13.806-2.386 6.848c-.1356333.3663301-.0455402.7781016.2306791 1.0543209s.6879908.3663124 1.0543209.2306791l6.848-2.386z"
                fill="#ffe0b2"
              />
              <path
                id="Shape"
                d="m34 15v4c-.0032948 1.1032019-.8967981 1.9967052-2 2h-24c-1.10320187-.0032948-1.9967052-.8967981-2-2v-8c.0032948-1.10320187.89679813-1.9967052 2-2h20v4c.0032948 1.1032019.8967981 1.9967052 2 2z"
                fill="#ffdc00"
              />
              <path
                id="Shape"
                d="m31 15v4c-.0032948 1.1032019-.8967981 1.9967052-2 2h3c1.1032019-.0032948 1.9967052-.8967981 2-2v-4z"
                fill="#fec108"
              />
              <path
                id="Shape"
                d="m34 11v4h-4c-1.1032019-.0032948-1.9967052-.8967981-2-2v-4h4c1.1032019.0032948 1.9967052.89679813 2 2z"
                fill="#ff9801"
              />
              <path
                id="Shape"
                d="m32 9h-3c1.1032019.0032948 1.9967052.89679813 2 2v4h3v-4c-.0032948-1.10320187-.8967981-1.9967052-2-2z"
                fill="#f57c00"
              />
              <path
                id="Shape"
                d="m22 35v3c0 .5522847-.4477153 1-1 1h-13c-.55228475 0-1-.4477153-1-1v-3z"
                fill="#e91e63"
              />
              <path
                id="Shape"
                d="m19 35v3c0 .5522847-.4477153 1-1 1h3c.5522847 0 1-.4477153 1-1v-3z"
                fill="#ad1457"
              />
              <path
                id="Shape"
                d="m22 26v9h-15v-9c0-.5522847.44771525-1 1-1h13c.5522847 0 1 .4477153 1 1z"
                fill="#02a9f4"
              />
              <path
                id="Shape"
                d="m21 25h-3c.5522847 0 1 .4477153 1 1v9h3v-9c0-.5522847-.4477153-1-1-1z"
                fill="#0377bc"
              />
              <g fill="#000">
                <path
                  id="Shape"
                  d="m4 50h16.382l-2 4h-3.382c-1.6568542 0-3 1.3431458-3 3s1.3431458 3 3 3h28c1.6568542 0 3-1.3431458 3-3s-1.3431458-3-3-3h-3.382l-2-4h16.382c1.7044406-.0544194 3.0448765-1.4752815 3-3.18v-35.656l.957-.957.008-.012 2.148-2.146c1.1812702-1.18487838 1.1812702-3.10212162 0-4.287l-2.875-2.874c-1.1846511-1.18181988-3.1023489-1.18181988-4.287 0l-2.146 2.147-.012.008-.957.957h-45.836c-1.7044406.05441939-3.04487651 1.47528146-3 3.18v39.64c-.04487651 1.7047185 1.2955594 3.1255806 3 3.18zm40 7c0 .5522847-.4477153 1-1 1h-28c-.5522847 0-1-.4477153-1-1s.4477153-1 1-1h28c.5522847 0 1 .4477153 1 1zm-6.618-3h-16.764l2-4h12.764zm4.486-38.362 3.492 3.491-5.355 1.854zm3.868 1.04 8.639-8.639 1.461 1.461-8.636 8.639zm8.629-14.378c.1933883-.19363947.45583-.30244612.7295-.30244612s.5361117.10880665.7295.30244612l2.876 2.876c.4027089.40296743.4027089 1.05603257 0 1.459l-1.45 1.449-4.334-4.332zm-2.865 2.864 1.461 1.461-8.639 8.639-1.461-1.464zm-47.5.836h43.836l-7.1 7.1c-.1052344.1085652-.1839499.2399859-.23.384h-.007l-2.387 6.847c-.2172214.6119828-.1237928 1.2913336.2505671 1.8219585.3743599.5306248.9830426.8464599 1.6324329.8470415.231569-.0002468.4614455-.039461.68-.116l6.847-2.384v-.007c.1440141-.0460501.2754348-.1247656.384-.23l7.1-7.1v28.837h-44.006c-.5522847 0-1 .4477153-1 1s.4477153 1 1 1h44v2.82c.0374856.5980051-.4039453 1.1188935-1 1.18h-50c-.59605473-.0611065-1.03748559-.5819949-1-1.18v-2.82h4c.55228475 0 1-.4477153 1-1s-.44771525-1-1-1h-4v-34.82c-.03748559-.59800508.40394527-1.11889349 1-1.18z"
                />
                <path
                  id="Shape"
                  d="m8 22h24c1.6568542 0 3-1.3431458 3-3v-8c0-1.65685425-1.3431458-3-3-3h-24c-1.65685425 0-3 1.34314575-3 3v8c0 1.6568542 1.34314575 3 3 3zm25-11v3h-3c-.5522847 0-1-.4477153-1-1v-3h3c.5522847 0 1 .4477153 1 1zm-26 0c0-.5522847.44771525-1 1-1h19v3c0 1.6568542 1.3431458 3 3 3h3v3c0 .5522847-.4477153 1-1 1h-24c-.55228475 0-1-.4477153-1-1z"
                />
                <path
                  id="Shape"
                  d="m21 24h-13c-1.1045695 0-2 .8954305-2 2v12c0 1.1045695.8954305 2 2 2h13c1.1045695 0 2-.8954305 2-2v-12c0-1.1045695-.8954305-2-2-2zm0 2v8h-13v-8zm-13 12v-2h13v2z"
                />
                <path
                  id="Shape"
                  d="m13.293 31.707c.3904999.3903819 1.0235001.3903819 1.414 0l1-1c.3903819-.3904999.3903819-1.0235001 0-1.414l-1-1c-.3923789-.3789722-1.0160848-.3735524-1.4018186.0121814s-.3911536 1.0094397-.0121814 1.4018186l.293.293-.293.293c-.3903819.3904999-.3903819 1.0235001 0 1.414z"
                />
                <path
                  id="Shape"
                  d="m25 26c0 .5522847.4477153 1 1 1h26c.5522847 0 1-.4477153 1-1s-.4477153-1-1-1h-26c-.5522847 0-1 .4477153-1 1z"
                />
                <path
                  id="Shape"
                  d="m52 29h-4c-.5522847 0-1 .4477153-1 1s.4477153 1 1 1h4c.5522847 0 1-.4477153 1-1s-.4477153-1-1-1z"
                />
                <path
                  id="Shape"
                  d="m26 31h18c.5522847 0 1-.4477153 1-1s-.4477153-1-1-1h-18c-.5522847 0-1 .4477153-1 1s.4477153 1 1 1z"
                />
                <path
                  id="Shape"
                  d="m52 33h-19c-.5522847 0-1 .4477153-1 1s.4477153 1 1 1h19c.5522847 0 1-.4477153 1-1s-.4477153-1-1-1z"
                />
                <path
                  id="Shape"
                  d="m26 35h3c.5522847 0 1-.4477153 1-1s-.4477153-1-1-1h-3c-.5522847 0-1 .4477153-1 1s.4477153 1 1 1z"
                />
                <path
                  id="Shape"
                  d="m39 37h-13c-.5522847 0-1 .4477153-1 1s.4477153 1 1 1h13c.5522847 0 1-.4477153 1-1s-.4477153-1-1-1z"
                />
              </g>
            </g>
          </g>
        </svg>